<?xml version="1.0" encoding="utf-8"?>
<!-- Generator: Adobe Illustrator 27.1.1, SVG Export Plug-In . SVG Version: 6.00 Build 0)  -->
<svg version="1.1" id="Capa_1" xmlns="http://www.w3.org/2000/svg" xmlns:xlink="http://www.w3.org/1999/xlink" x="0px" y="0px"
	 viewBox="0 0 638.64 454.55" style="enable-background:new 0 0 638.64 454.55;" xml:space="preserve">
<style type="text/css">
	.st0{fill:#070508;}
	.st1{fill:#E7BE45;}
	.st2{fill:#FFFFFF;}
</style>
<g>
	<g>
		<g>
			<g>
				<g>
					<path class="st0" d="M40.25,279.68c0-1.52,0.73-2.27,2.2-2.27h68.3c1.37,0,2.05,0.76,2.05,2.27v4.26
						c0,1.52-0.69,2.27-2.05,2.27H49.2v41.52h49.15c1.42,0,2.13,0.76,2.13,2.27v4.33c0,1.52-0.71,2.27-2.13,2.27H49.2v43.21
						c0,1.52-0.71,2.27-2.13,2.27h-4.62c-1.47,0-2.2-0.76-2.2-2.27V279.68z"/>
					<path class="st0" d="M47.07,383.27h-4.62c-2.11,0-3.37-1.29-3.37-3.45V279.68c0-2.16,1.26-3.45,3.37-3.45h68.3
						c2.02,0,3.23,1.29,3.23,3.45v4.26c0,2.16-1.21,3.45-3.23,3.45H50.37v39.18h47.98c2.07,0,3.3,1.29,3.3,3.45v4.33
						c0,2.16-1.23,3.45-3.3,3.45H50.37v42.04C50.37,381.98,49.14,383.27,47.07,383.27z M42.45,278.58c-0.76,0-1.03,0.17-1.03,1.1
						v100.14c0,0.93,0.27,1.1,1.03,1.1h4.62c0.65,0,0.95-0.11,0.95-1.1v-44.39h50.33c0.65,0,0.95-0.11,0.95-1.1v-4.33
						c0-0.99-0.3-1.1-0.95-1.1H48.02v-43.87h62.73c0.55,0,0.88-0.05,0.88-1.1v-4.26c0-1.05-0.33-1.1-0.88-1.1H42.45z"/>
				</g>
				<g>
					<path class="st0" d="M190.2,362.65c-1.86,3.28-4.13,6.21-6.82,8.8c-2.69,2.59-5.65,4.81-8.88,6.64s-6.7,3.24-10.42,4.22
						c-3.72,0.98-7.53,1.47-11.44,1.47c-6.36,0-12.34-1.22-17.94-3.67c-5.6-2.45-10.5-5.77-14.71-9.98
						c-4.21-4.21-7.53-9.12-9.98-14.75c-2.45-5.62-3.67-11.59-3.67-17.9c0-6.31,1.22-12.26,3.67-17.86
						c2.44-5.6,5.77-10.5,9.98-14.71c4.2-4.21,9.12-7.53,14.75-9.98c5.62-2.45,11.59-3.67,17.9-3.67c3.86,0,7.63,0.5,11.3,1.5
						c3.67,1,7.13,2.42,10.38,4.26c3.25,1.83,6.24,4.06,8.95,6.68c2.71,2.62,5.03,5.56,6.93,8.84V294.5c0-1.47,0.71-2.2,2.13-2.2
						H196c1.61,0,2.42,0.73,2.42,2.2v85.32c0,0.78-0.26,1.36-0.77,1.72s-1.14,0.55-1.87,0.55h-2.86c-1.81,0-2.71-0.86-2.71-2.57
						V362.65z M187.49,322.89c-2.05-4.6-4.83-8.64-8.33-12.14c-3.5-3.5-7.53-6.28-12.11-8.36c-4.57-2.08-9.4-3.14-14.49-3.19h-0.22
						c-5.04,0-9.82,1.03-14.34,3.08c-4.53,2.05-8.5,4.83-11.92,8.33c-3.43,3.5-6.15,7.56-8.18,12.18
						c-2.03,4.62-3.04,9.48-3.04,14.56c0,5.14,0.98,10.04,2.93,14.71c1.96,4.67,4.63,8.77,8.03,12.29c3.4,3.52,7.36,6.33,11.89,8.44
						c4.52,2.1,9.35,3.15,14.49,3.15c5.23,0,10.17-1.01,14.82-3.04c4.64-2.03,8.72-4.79,12.22-8.29c3.5-3.5,6.26-7.58,8.29-12.25
						c2.03-4.67,3.04-9.62,3.04-14.86C190.57,332.35,189.54,327.49,187.49,322.89z M159.17,277.84c-0.44,0.83-0.86,1.35-1.25,1.54
						c-0.39,0.2-0.78,0.29-1.17,0.29h-4.26c-0.59,0-0.99-0.23-1.21-0.7c-0.22-0.46-0.11-1.14,0.33-2.02l8.73-17.09
						c0.39-0.78,0.78-1.28,1.17-1.5c0.39-0.22,0.81-0.33,1.25-0.33h4.7c0.68,0,1.1,0.26,1.25,0.77c0.15,0.51,0.02,1.11-0.37,1.8
						L159.17,277.84z"/>
					<path class="st0" d="M152.64,384.96c-6.49,0-12.68-1.27-18.41-3.77c-5.71-2.49-10.78-5.94-15.07-10.22
						c-4.29-4.29-7.73-9.38-10.23-15.11c-2.5-5.74-3.76-11.92-3.76-18.37c0-6.44,1.27-12.61,3.77-18.33
						c2.49-5.7,5.93-10.78,10.22-15.07c4.29-4.29,9.37-7.73,15.11-10.23c5.74-2.5,11.92-3.76,18.37-3.76
						c3.95,0,7.85,0.52,11.61,1.55c3.74,1.02,7.32,2.49,10.65,4.37c3.32,1.88,6.42,4.18,9.19,6.85c1.82,1.75,3.47,3.66,4.95,5.72
						V294.5c0-2.11,1.23-3.37,3.3-3.37H196c2.25,0,3.59,1.26,3.59,3.37v85.32c0,1.47-0.69,2.27-1.26,2.68
						c-0.72,0.51-1.58,0.77-2.55,0.77h-2.86c-2.47,0-3.89-1.36-3.89-3.74v-12.85c-1.44,2.02-3.05,3.9-4.84,5.62
						c-2.75,2.65-5.81,4.94-9.11,6.81c-3.3,1.88-6.9,3.33-10.7,4.33C160.58,384.45,156.63,384.96,152.64,384.96z M152.64,292.45
						c-6.12,0-11.99,1.2-17.43,3.57c-5.47,2.38-10.31,5.65-14.38,9.73c-4.09,4.09-7.36,8.91-9.73,14.35
						c-2.37,5.42-3.57,11.28-3.57,17.39c0,6.12,1.2,11.99,3.57,17.43c2.37,5.46,5.65,10.3,9.73,14.38c4.08,4.08,8.9,7.35,14.35,9.73
						c5.43,2.37,11.3,3.57,17.47,3.57c3.79,0,7.54-0.48,11.15-1.43c3.6-0.95,7.02-2.33,10.14-4.1c3.13-1.78,6.03-3.95,8.64-6.47
						c2.6-2.5,4.82-5.37,6.62-8.54l2.19-3.87v21.32c0,0.92,0.24,1.39,1.54,1.39h2.86c0.49,0,0.88-0.11,1.19-0.33
						c0.08-0.06,0.28-0.2,0.28-0.77V294.5c0-0.62-0.09-1.03-1.25-1.03h-3.67c-0.72,0-0.95,0.15-0.95,1.03v22.4l-2.19-3.76
						c-1.85-3.17-4.11-6.06-6.73-8.59c-2.63-2.54-5.56-4.72-8.71-6.5c-3.16-1.78-6.56-3.18-10.11-4.15
						C160.08,292.94,156.38,292.45,152.64,292.45z M152.2,377.11c-5.28,0-10.32-1.1-14.98-3.26c-4.63-2.15-8.75-5.08-12.23-8.68
						c-3.48-3.61-6.27-7.87-8.27-12.65c-2.01-4.79-3.03-9.89-3.03-15.16c0-5.23,1.06-10.29,3.14-15.04
						c2.08-4.73,4.91-8.95,8.42-12.53c3.51-3.59,7.64-6.47,12.27-8.57c4.66-2.11,9.65-3.19,14.83-3.19
						c5.46,0.05,10.49,1.16,15.2,3.3c4.68,2.13,8.87,5.02,12.45,8.6c3.58,3.58,6.47,7.79,8.57,12.49c2.11,4.73,3.18,9.8,3.18,15.08
						c0,5.37-1.06,10.53-3.14,15.32c-2.08,4.79-4.96,9.03-8.54,12.61c-3.59,3.59-7.82,6.46-12.58,8.54
						C162.72,376.05,157.57,377.11,152.2,377.11z M152.56,300.37c-5.06,0-9.72,1-14.07,2.98c-4.37,1.98-8.26,4.7-11.57,8.08
						c-3.31,3.38-5.98,7.36-7.94,11.83c-1.96,4.45-2.95,9.19-2.95,14.09c0,4.96,0.96,9.76,2.84,14.26
						c1.89,4.51,4.51,8.53,7.79,11.93c3.28,3.4,7.16,6.16,11.54,8.19c4.35,2.02,9.06,3.04,13.99,3.04c5.04,0,9.87-0.99,14.35-2.95
						c4.49-1.96,8.47-4.67,11.86-8.04c3.37-3.37,6.08-7.37,8.04-11.89c1.96-4.5,2.95-9.34,2.95-14.39c0-4.95-1-9.7-2.98-14.12
						c-1.99-4.45-4.71-8.41-8.09-11.79c-3.38-3.38-7.34-6.11-11.76-8.13C162.17,301.45,157.45,300.41,152.56,300.37z M156.75,280.85
						h-4.26c-1.05,0-1.85-0.49-2.27-1.37c-0.39-0.82-0.28-1.81,0.34-3.04l8.73-17.1c0.5-1,1.04-1.65,1.64-1.99
						c0.56-0.32,1.18-0.48,1.82-0.48h4.7c1.73,0,2.24,1.13,2.38,1.62c0.24,0.83,0.08,1.73-0.47,2.7l-9.15,17.21
						c-0.57,1.08-1.13,1.73-1.76,2.04C157.89,280.71,157.32,280.85,156.75,280.85z M167.58,259.13l-4.81,0.08
						c-0.24,0-0.46,0.06-0.67,0.18c-0.01,0.01-0.28,0.17-0.7,1l-8.73,17.11c-0.37,0.73-0.31,0.99-0.31,1l4.4,0.01
						c0.21,0,0.42-0.06,0.65-0.17l0,0c0,0,0.27-0.17,0.73-1.04l0,0l9.17-17.24C167.54,259.64,167.63,259.32,167.58,259.13z"/>
				</g>
				<g>
					<path class="st0" d="M281.03,365.15c0.59,0,1.03,0.22,1.32,0.66l2.2,3.23c0.49,0.59,0.67,1.19,0.55,1.8
						c-0.12,0.61-0.48,1.16-1.06,1.65c-1.86,1.52-3.91,2.97-6.16,4.37c-2.25,1.39-4.65,2.63-7.19,3.7
						c-2.54,1.08-5.25,1.92-8.11,2.53c-2.86,0.61-5.86,0.92-8.99,0.92c-6.36,0-12.36-1.22-18.01-3.67
						c-5.65-2.45-10.6-5.76-14.86-9.94c-4.26-4.18-7.62-9.1-10.09-14.75s-3.7-11.7-3.7-18.16c0-6.36,1.24-12.35,3.7-17.97
						c2.47-5.62,5.83-10.53,10.09-14.71c4.26-4.18,9.21-7.48,14.86-9.9c5.65-2.42,11.63-3.63,17.94-3.63c2.64,0,5.31,0.26,8,0.77
						s5.33,1.26,7.92,2.24c2.59,0.98,5.09,2.18,7.48,3.59c2.4,1.42,4.62,3.01,6.68,4.77c0.78,0.69,1.09,1.31,0.92,1.87
						c-0.17,0.56-0.3,0.94-0.4,1.14l-2.13,3.37c-0.1,0.15-0.29,0.31-0.59,0.48c-0.29,0.17-0.64,0.26-1.03,0.26
						c-0.54,0-1.03-0.19-1.47-0.59c-3.86-3.42-8.03-5.89-12.51-7.41c-4.48-1.52-8.79-2.27-12.95-2.27
						c-4.89,0.05-9.62,1.03-14.2,2.93c-4.57,1.91-8.61,4.55-12.11,7.92c-3.5,3.37-6.3,7.37-8.4,12c-2.1,4.62-3.15,9.67-3.15,15.15
						c0,5.28,1,10.25,3.01,14.89c2.01,4.65,4.72,8.69,8.14,12.14c3.42,3.45,7.45,6.16,12.07,8.14c4.62,1.98,9.53,2.97,14.71,2.97
						c2.89,0,5.56-0.27,8.03-0.81c2.47-0.54,4.76-1.26,6.86-2.16c2.1-0.9,4.06-1.94,5.87-3.12s3.47-2.42,4.99-3.74
						C279.81,365.37,280.39,365.15,281.03,365.15z"/>
					<path class="st0" d="M253.59,385.18c-6.49,0-12.7-1.27-18.48-3.76c-5.76-2.49-10.88-5.92-15.21-10.18
						c-4.34-4.27-7.82-9.35-10.34-15.11c-2.52-5.77-3.8-12.04-3.8-18.63c0-6.49,1.28-12.7,3.8-18.45c2.52-5.73,6-10.81,10.34-15.07
						c4.34-4.26,9.46-7.68,15.22-10.15c8.19-3.51,17.32-4.71,26.62-2.93c2.75,0.52,5.48,1.3,8.12,2.29c2.65,1,5.23,2.24,7.67,3.68
						c2.45,1.45,4.75,3.1,6.84,4.89c1.45,1.27,1.49,2.39,1.28,3.11c-0.2,0.66-0.36,1.1-0.48,1.32l-2.18,3.47
						c-0.22,0.33-0.53,0.6-0.99,0.86c-1.13,0.66-2.73,0.54-3.87-0.47c-3.73-3.3-7.8-5.72-12.1-7.17c-4.34-1.47-8.57-2.21-12.57-2.21
						c-4.7,0.05-9.33,1-13.74,2.85c-4.42,1.84-8.37,4.43-11.74,7.68c-3.38,3.26-6.12,7.17-8.15,11.64
						c-2.02,4.45-3.05,9.38-3.05,14.66c0,5.1,0.98,9.95,2.91,14.43c1.94,4.49,4.59,8.45,7.9,11.78c3.3,3.32,7.24,5.98,11.7,7.89
						c4.45,1.91,9.25,2.88,14.25,2.88c2.79,0,5.41-0.26,7.78-0.78c2.39-0.52,4.63-1.23,6.64-2.1c2.04-0.88,3.96-1.9,5.69-3.02
						c1.76-1.14,3.4-2.37,4.86-3.64c1.61-1.32,3.84-1.24,4.83,0.23l2.19,3.22c0.83,0.99,0.86,2.02,0.73,2.69
						c-0.17,0.88-0.67,1.66-1.46,2.32c-1.9,1.55-4.02,3.05-6.29,4.46c-2.29,1.42-4.76,2.69-7.35,3.79c-2.6,1.1-5.39,1.97-8.32,2.6
						C259.88,384.86,256.78,385.18,253.59,385.18z M253.52,292.45c-6.12,0-12,1.19-17.47,3.54c-5.49,2.35-10.37,5.6-14.5,9.66
						c-4.13,4.06-7.44,8.88-9.84,14.35c-2.39,5.45-3.61,11.34-3.61,17.5c0,6.26,1.21,12.21,3.61,17.69
						c2.4,5.48,5.71,10.32,9.84,14.38s9.01,7.32,14.5,9.7c5.48,2.37,11.38,3.57,17.55,3.57c3.03,0,5.97-0.3,8.74-0.89
						c2.78-0.59,5.43-1.42,7.9-2.46c2.48-1.05,4.84-2.27,7.03-3.62c2.19-1.36,4.23-2.8,6.04-4.28c0.37-0.31,0.58-0.63,0.65-0.97
						c0.02-0.11,0.07-0.37-0.3-0.82l-2.27-3.32c-0.13-0.18-0.81-0.21-1.37,0.25c-1.52,1.32-3.24,2.62-5.09,3.82
						c-1.85,1.2-3.88,2.28-6.04,3.21c-2.15,0.93-4.53,1.68-7.08,2.23c-2.54,0.55-5.32,0.83-8.28,0.83c-5.32,0-10.42-1.03-15.17-3.07
						c-4.74-2.03-8.93-4.86-12.44-8.4c-3.51-3.54-6.33-7.74-8.39-12.5c-2.06-4.77-3.1-9.94-3.1-15.36c0-5.62,1.1-10.88,3.26-15.64
						c2.15-4.73,5.06-8.89,8.65-12.35c3.59-3.46,7.78-6.21,12.47-8.16c4.7-1.96,9.62-2.97,14.64-3.02c4.28,0,8.76,0.79,13.34,2.34
						c4.6,1.56,8.95,4.13,12.91,7.64c0.6,0.54,0.91,0.32,1.12,0.19c0.18-0.11,0.24-0.16,0.24-0.17l2.07-3.3
						c0.03-0.07,0.13-0.39,0.27-0.85l0,0c-0.01,0-0.09-0.23-0.57-0.65c-1.98-1.7-4.17-3.26-6.5-4.64c-2.32-1.38-4.78-2.55-7.3-3.51
						c-2.51-0.95-5.11-1.68-7.73-2.18C258.69,292.7,256.07,292.45,253.52,292.45z"/>
				</g>
				<g>
					<path class="st0" d="M292.84,265.81c0-0.59,0.15-1.08,0.44-1.47c0.29-0.39,0.83-0.59,1.61-0.59h5.36
						c1.22,0,1.83,0.71,1.83,2.13v5.14c0,0.78-0.17,1.31-0.51,1.58c-0.34,0.27-0.78,0.4-1.32,0.4h-5.28c-1.42,0-2.13-0.66-2.13-1.98
						V265.81z M293.28,294.72c0-1.61,0.76-2.42,2.27-2.42h3.81c0.73,0,1.39,0.22,1.98,0.66s0.88,1.03,0.88,1.76v84.88
						c0,1.66-0.71,2.49-2.13,2.49h-4.55c-1.52,0-2.27-0.83-2.27-2.49V294.72z"/>
					<path class="st0" d="M300.1,383.27h-4.55c-2.16,0-3.45-1.37-3.45-3.67v-84.88c0-2.25,1.29-3.59,3.45-3.59h3.81
						c0.99,0,1.89,0.3,2.68,0.89c0.88,0.66,1.35,1.6,1.35,2.7v84.88C303.4,381.9,302.17,383.27,300.1,383.27z M295.55,293.47
						c-0.76,0-1.1,0.18-1.1,1.25v84.88c0,1.23,0.44,1.32,1.1,1.32h4.55c0.47,0,0.95,0,0.95-1.32v-84.88c0-0.36-0.12-0.6-0.41-0.82
						c-0.38-0.29-0.8-0.43-1.28-0.43H295.55z M300.25,274.18h-5.28c-2.07,0-3.3-1.18-3.3-3.15v-5.21c0-0.84,0.23-1.57,0.67-2.17
						c0.53-0.7,1.38-1.06,2.55-1.06h5.36c1.88,0,3.01,1.23,3.01,3.3v5.14c0,1.16-0.32,2-0.96,2.5
						C301.74,273.96,301.05,274.18,300.25,274.18z M294.89,264.93c-0.45,0-0.64,0.09-0.68,0.12c-0.14,0.18-0.2,0.43-0.2,0.76v5.21
						c0,0.53,0.04,0.81,0.95,0.81h5.28c0.38,0,0.54-0.11,0.59-0.15l0,0c-0.01,0,0.07-0.18,0.07-0.66v-5.14
						c0-0.95-0.26-0.95-0.66-0.95H294.89z"/>
				</g>
				<g>
					<path class="st0" d="M319.03,268.6c0-0.78,0.18-1.42,0.55-1.91c0.37-0.49,0.94-0.73,1.72-0.73h3.67c0.78,0,1.36,0.26,1.72,0.77
						c0.37,0.51,0.55,1.14,0.55,1.87v110.85c0,0.78-0.18,1.42-0.55,1.91c-0.37,0.49-0.94,0.73-1.72,0.73h-3.67
						c-0.78,0-1.36-0.23-1.72-0.7c-0.37-0.46-0.55-1.11-0.55-1.94V268.6z"/>
					<path class="st0" d="M324.97,383.27h-3.67c-1.44,0-2.24-0.62-2.65-1.14c-0.53-0.68-0.8-1.58-0.8-2.67V268.6
						c0-1.04,0.26-1.92,0.79-2.61c0.41-0.55,1.21-1.2,2.66-1.2h3.67c1.47,0,2.27,0.69,2.68,1.26c0.51,0.72,0.77,1.58,0.77,2.55
						v110.85c0,1.04-0.26,1.92-0.79,2.61C327.22,382.62,326.42,383.27,324.97,383.27z M321.3,267.13c-0.59,0-0.73,0.19-0.79,0.27
						c-0.21,0.28-0.31,0.68-0.31,1.2v110.85c0,0.56,0.1,0.97,0.3,1.22c0.13,0.17,0.4,0.25,0.8,0.25h3.67c0.59,0,0.73-0.19,0.79-0.27
						c0.21-0.28,0.31-0.68,0.31-1.2V268.6c0-0.49-0.11-0.88-0.33-1.19c-0.06-0.08-0.2-0.28-0.77-0.28H321.3z"/>
				</g>
			</g>
			<g>
				<g>
					<path class="st1" d="M410.5,351.62c0.49-0.22,0.95-0.33,1.39-0.33c0.83,0,1.52,0.42,2.05,1.25l11.52,16.95
						c0.78,0.98,1.09,1.8,0.92,2.46c-0.17,0.66-0.8,1.36-1.87,2.09c-3.72,2.64-8.1,4.89-13.13,6.75
						c-5.04,1.86-10.76,2.79-17.17,2.79c-7.48,0-14.5-1.42-21.06-4.26c-6.55-2.84-12.28-6.7-17.17-11.59
						c-4.89-4.89-8.76-10.61-11.59-17.17c-2.84-6.55-4.26-13.57-4.26-21.06s1.42-14.49,4.26-21.02s6.7-12.22,11.59-17.06
						c4.89-4.84,10.61-8.66,17.17-11.44c6.55-2.79,13.57-4.18,21.06-4.18c3.18,0,6.2,0.26,9.06,0.77c2.86,0.51,5.56,1.21,8.11,2.09
						s4.94,1.92,7.19,3.12c2.25,1.2,4.33,2.48,6.24,3.85c0.73,0.54,1.16,1.16,1.28,1.87c0.12,0.71,0.01,1.33-0.33,1.87l-12.25,17.53
						c-0.49,0.69-1.13,1.03-1.91,1.03c-0.83,0-1.64-0.32-2.42-0.95c-2.35-1.86-4.7-3.2-7.04-4.04c-2.35-0.83-4.99-1.25-7.92-1.25
						c-3.91,0-7.53,0.72-10.86,2.16c-3.33,1.44-6.2,3.41-8.62,5.91c-2.42,2.49-4.32,5.43-5.69,8.8c-1.37,3.37-2.05,7.02-2.05,10.93
						c0,3.91,0.69,7.58,2.05,11c1.37,3.42,3.26,6.4,5.69,8.91c2.42,2.52,5.29,4.51,8.62,5.98s6.94,2.2,10.86,2.2
						c2.98,0,5.72-0.52,8.22-1.58c2.49-1.05,4.67-2.21,6.53-3.48C409.5,352.15,410.01,351.84,410.5,351.62z"/>
					<path class="st1" d="M525.75,378.88c0,2.1-1.05,3.15-3.15,3.15h-16.07c-0.73,0-1.38-0.24-1.94-0.73
						c-0.56-0.49-1.05-1.09-1.47-1.8c-0.41-0.71-0.77-1.44-1.06-2.2c-0.29-0.76-0.54-1.41-0.73-1.94l-0.95-2.49
						c-3.23,3.37-6.9,5.99-11,7.85c-4.11,1.86-8.54,2.79-13.28,2.79c-5.92,0-11.6-1.1-17.06-3.3c-5.45-2.2-10.27-5.32-14.45-9.35
						c-4.18-4.04-7.51-8.89-9.98-14.56c-2.47-5.67-3.7-11.96-3.7-18.85c0-6.36,1.16-12.35,3.48-17.97
						c2.32-5.62,5.5-10.53,9.54-14.71c4.04-4.18,8.82-7.48,14.34-9.9c5.53-2.42,11.47-3.63,17.83-3.63c5.43,0,10.27,1.06,14.53,3.19
						c4.26,2.13,7.95,5.03,11.08,8.69l2.79-7.78c0.39-1.12,0.76-1.93,1.1-2.42c0.34-0.49,1.03-0.73,2.05-0.73h14.97
						c2.1,0,3.15,1.05,3.15,3.15V378.88z M497.18,328.77c-1.1-2.69-2.62-5.05-4.55-7.08c-1.93-2.03-4.21-3.64-6.82-4.84
						c-2.62-1.2-5.44-1.8-8.47-1.8c-2.79,0-5.45,0.54-8,1.61c-2.54,1.08-4.78,2.59-6.71,4.55c-1.93,1.96-3.47,4.29-4.62,7.01
						c-1.15,2.71-1.72,5.74-1.72,9.06c0,3.18,0.54,6.13,1.61,8.84c1.08,2.71,2.54,5.06,4.4,7.04c1.86,1.98,4.08,3.53,6.68,4.66
						c2.59,1.13,5.38,1.69,8.36,1.69c3.03,0,5.86-0.6,8.47-1.8c2.62-1.2,4.89-2.8,6.82-4.81c1.93-2,3.45-4.37,4.55-7.08
						c1.1-2.71,1.65-5.56,1.65-8.55C498.83,334.3,498.28,331.46,497.18,328.77z"/>
					<path class="st1" d="M535.36,295.39c0-2.15,1.05-3.23,3.15-3.23h12.03c1.08,0,2.04,0.17,2.9,0.51
						c0.86,0.34,1.65,1.39,2.38,3.15l3.08,7.85c1.47-1.61,2.9-3.17,4.29-4.66c1.39-1.49,2.91-2.81,4.55-3.96
						c1.64-1.15,3.5-2.07,5.58-2.75c2.08-0.68,4.54-1.03,7.37-1.03c2.93,0,5.77,0.48,8.51,1.43s5.22,2.07,7.45,3.34
						c2.23,1.27,4.13,2.52,5.72,3.74c1.59,1.22,2.68,2.1,3.26,2.64c1.22,1.08,1.83,2.04,1.83,2.9c0,0.86-0.34,1.77-1.03,2.75
						l-9.17,12.99c-0.64,0.93-1.37,1.39-2.2,1.39c-0.73,0-1.49-0.34-2.27-1.03c-0.64-0.54-1.41-1.2-2.31-1.98
						c-0.91-0.78-1.96-1.53-3.15-2.24c-1.2-0.71-2.56-1.31-4.07-1.8c-1.52-0.49-3.2-0.73-5.06-0.73c-2.15,0-4.18,0.33-6.09,0.99
						s-3.58,1.65-5.03,2.97s-2.58,2.97-3.41,4.95c-0.83,1.98-1.25,4.27-1.25,6.86v48.42c0,2.1-1.08,3.15-3.23,3.15h-20.69
						c-2.1,0-3.15-1.05-3.15-3.15V295.39z"/>
				</g>
			</g>
		</g>
		<g>
			<path class="st0" d="M47.48,423.64c0.1,0,0.18,0.05,0.25,0.14l0.95,1.6c0.09,0.11,0.12,0.21,0.1,0.29
				c-0.02,0.08-0.09,0.17-0.21,0.26c-0.54,0.4-1.13,0.71-1.8,0.95c-0.66,0.23-1.42,0.35-2.27,0.35c-1,0-1.93-0.19-2.81-0.56
				c-0.87-0.38-1.64-0.89-2.29-1.54c-0.65-0.65-1.17-1.41-1.55-2.28c-0.38-0.87-0.57-1.8-0.57-2.8c0-1,0.19-1.93,0.57-2.8
				c0.38-0.87,0.89-1.62,1.55-2.27c0.65-0.64,1.41-1.15,2.29-1.52c0.87-0.37,1.81-0.56,2.81-0.56c0.85,0,1.61,0.12,2.27,0.35
				c0.66,0.23,1.27,0.55,1.81,0.95c0.11,0.08,0.16,0.16,0.16,0.25c0,0.09-0.01,0.16-0.05,0.22l-1,1.68
				c-0.05,0.07-0.12,0.11-0.22,0.11c-0.1,0-0.2-0.03-0.3-0.1c-0.44-0.28-0.87-0.49-1.29-0.64c-0.42-0.15-0.88-0.22-1.39-0.22
				c-0.63,0-1.22,0.12-1.76,0.35c-0.54,0.23-1.01,0.56-1.41,0.97c-0.39,0.41-0.7,0.89-0.93,1.44c-0.22,0.55-0.34,1.15-0.34,1.78
				c0,0.63,0.11,1.23,0.34,1.79c0.22,0.56,0.53,1.05,0.93,1.47c0.39,0.42,0.86,0.75,1.41,0.99c0.54,0.25,1.13,0.37,1.76,0.37
				c0.51,0,0.99-0.08,1.45-0.25c0.46-0.17,0.86-0.37,1.19-0.62C47.27,423.69,47.38,423.64,47.48,423.64z"/>
			<path class="st0" d="M56.27,418.67c0.32-0.75,0.76-1.4,1.32-1.95c0.55-0.55,1.21-0.99,1.96-1.32c0.75-0.32,1.55-0.48,2.4-0.48
				c0.86,0,1.66,0.16,2.42,0.48c0.76,0.32,1.42,0.76,1.98,1.32c0.56,0.56,1.01,1.21,1.34,1.96c0.33,0.75,0.49,1.55,0.49,2.39
				c0,0.85-0.16,1.65-0.49,2.4c-0.33,0.75-0.77,1.4-1.34,1.96c-0.56,0.56-1.22,1-1.98,1.33c-0.75,0.33-1.56,0.49-2.41,0.49
				c-0.85,0-1.65-0.16-2.4-0.49c-0.75-0.33-1.4-0.77-1.96-1.33c-0.56-0.56-1-1.21-1.32-1.96c-0.32-0.75-0.48-1.55-0.48-2.4
				C55.79,420.22,55.95,419.42,56.27,418.67z M58.72,422.51c0.17,0.45,0.41,0.83,0.71,1.17c0.31,0.33,0.67,0.6,1.1,0.79
				c0.43,0.19,0.9,0.29,1.41,0.29c0.52,0,1-0.1,1.43-0.29c0.43-0.19,0.8-0.46,1.11-0.8c0.31-0.33,0.55-0.73,0.72-1.17
				c0.17-0.44,0.26-0.92,0.26-1.42s-0.09-0.98-0.26-1.42c-0.17-0.44-0.41-0.83-0.73-1.16c-0.31-0.33-0.69-0.59-1.12-0.79
				c-0.44-0.19-0.91-0.29-1.42-0.29c-0.51,0-0.98,0.09-1.41,0.28c-0.43,0.19-0.8,0.45-1.11,0.78c-0.31,0.33-0.55,0.72-0.72,1.16
				c-0.17,0.44-0.25,0.92-0.25,1.43C58.47,421.58,58.55,422.06,58.72,422.51z"/>
			<path class="st0" d="M78.15,426.63c0.01,0.27-0.12,0.4-0.4,0.4h-1.94c-0.25,0-0.38-0.13-0.38-0.4v-11.19
				c0-0.27,0.13-0.4,0.38-0.4h1.34c0.13,0,0.25,0.05,0.35,0.14c0.1,0.09,0.17,0.21,0.19,0.34l0.14,1.13
				c0.43-0.54,0.93-0.96,1.51-1.26c0.57-0.3,1.21-0.45,1.9-0.45c0.79,0,1.47,0.17,2.05,0.5c0.58,0.34,1.05,0.87,1.42,1.59
				c0.21-0.31,0.43-0.6,0.67-0.86c0.24-0.26,0.51-0.48,0.81-0.66c0.3-0.18,0.64-0.32,1.02-0.42c0.38-0.1,0.81-0.15,1.3-0.15
				c0.77,0,1.45,0.14,2.02,0.41c0.57,0.27,1.04,0.64,1.42,1.1c0.37,0.46,0.65,1,0.83,1.61c0.18,0.61,0.28,1.26,0.28,1.94v6.63
				c0,0.27-0.13,0.4-0.38,0.4h-1.9c-0.26,0-0.39-0.13-0.39-0.4V420c0-0.3-0.05-0.61-0.16-0.9c-0.11-0.3-0.26-0.56-0.46-0.8
				s-0.45-0.43-0.75-0.58c-0.3-0.15-0.64-0.22-1.02-0.22c-0.32,0-0.63,0.06-0.92,0.19c-0.29,0.12-0.55,0.29-0.77,0.51
				c-0.22,0.22-0.4,0.47-0.53,0.75c-0.13,0.29-0.19,0.6-0.19,0.93v6.77c0,0.26-0.12,0.39-0.37,0.39h-1.91
				c-0.26,0-0.39-0.13-0.39-0.39v-6.68c0-0.29-0.05-0.59-0.16-0.88c-0.11-0.29-0.26-0.56-0.45-0.79c-0.2-0.24-0.44-0.43-0.73-0.58
				c-0.29-0.15-0.62-0.22-0.99-0.22c-0.25,0-0.53,0.05-0.81,0.14c-0.29,0.09-0.55,0.24-0.79,0.44c-0.24,0.2-0.44,0.46-0.6,0.78
				c-0.16,0.32-0.24,0.69-0.24,1.13V426.63z"/>
			<path class="st0" d="M100.73,415.43c0-0.26,0.13-0.39,0.39-0.39h1.34c0.17,0,0.3,0.05,0.39,0.15c0.09,0.1,0.15,0.23,0.18,0.4
				l0.21,1.16c0.5-0.55,1.07-1,1.74-1.32c0.66-0.33,1.37-0.49,2.12-0.49c0.8,0,1.55,0.15,2.27,0.44c0.71,0.29,1.34,0.71,1.88,1.24
				c0.54,0.54,0.97,1.17,1.29,1.92c0.32,0.74,0.47,1.56,0.47,2.46c0,0.85-0.15,1.65-0.44,2.4c-0.29,0.75-0.7,1.4-1.23,1.96
				c-0.53,0.56-1.15,1-1.87,1.32c-0.72,0.32-1.52,0.48-2.38,0.48c-0.75,0-1.44-0.15-2.07-0.44c-0.63-0.29-1.18-0.69-1.65-1.19v4.71
				c0,0.26-0.12,0.39-0.37,0.39h-1.86c-0.26,0-0.39-0.13-0.39-0.39V415.43z M103.5,422.37c0.17,0.44,0.4,0.84,0.72,1.19
				c0.31,0.35,0.68,0.64,1.12,0.86c0.44,0.22,0.93,0.33,1.47,0.33c0.53,0,1.01-0.1,1.44-0.29c0.44-0.19,0.81-0.46,1.12-0.79
				c0.31-0.33,0.55-0.73,0.72-1.18s0.25-0.94,0.25-1.45c0-0.51-0.08-0.99-0.24-1.44c-0.16-0.44-0.4-0.83-0.7-1.15
				c-0.3-0.33-0.67-0.58-1.11-0.77c-0.44-0.19-0.93-0.28-1.47-0.28s-1.03,0.11-1.47,0.32c-0.44,0.21-0.81,0.49-1.12,0.83
				c-0.31,0.34-0.55,0.73-0.72,1.17c-0.17,0.44-0.25,0.88-0.25,1.32C103.25,421.48,103.33,421.92,103.5,422.37z"/>
			<path class="st0" d="M120.35,415.45c0-0.27,0.12-0.4,0.37-0.4h1.35c0.13,0,0.25,0.02,0.36,0.06c0.11,0.04,0.18,0.17,0.22,0.38
				l0.19,1.03c0.31-0.5,0.71-0.89,1.2-1.18c0.49-0.28,1.03-0.42,1.63-0.42c0.37,0,0.72,0.05,1.06,0.16c0.33,0.1,0.64,0.23,0.92,0.37
				c0.28,0.14,0.52,0.28,0.71,0.43c0.2,0.15,0.35,0.27,0.45,0.36c0.14,0.13,0.21,0.25,0.21,0.35c0,0.1-0.03,0.2-0.11,0.3l-0.88,1.24
				c-0.07,0.1-0.15,0.16-0.25,0.16c-0.08,0-0.18-0.04-0.29-0.12c-0.12-0.09-0.26-0.18-0.41-0.27c-0.15-0.09-0.31-0.17-0.49-0.25
				c-0.18-0.08-0.36-0.14-0.57-0.18c-0.2-0.05-0.42-0.07-0.65-0.07c-0.29,0-0.57,0.05-0.85,0.16c-0.28,0.11-0.53,0.27-0.75,0.49
				c-0.22,0.22-0.4,0.5-0.54,0.83c-0.14,0.34-0.21,0.74-0.21,1.21v6.56c0.01,0.26-0.11,0.39-0.38,0.39h-1.93
				c-0.25,0-0.37-0.13-0.37-0.39V415.45z"/>
			<path class="st0" d="M146.57,426.64c0,0.26-0.12,0.39-0.37,0.39h-1.67c-0.17,0-0.31-0.06-0.41-0.17
				c-0.11-0.11-0.16-0.25-0.16-0.42v-0.78c-0.51,0.5-1.08,0.88-1.72,1.16c-0.64,0.28-1.31,0.42-2.01,0.42
				c-0.8,0-1.56-0.15-2.29-0.46c-0.73-0.3-1.38-0.73-1.94-1.27c-0.56-0.55-1.01-1.19-1.34-1.95c-0.33-0.75-0.5-1.58-0.5-2.48
				c0-0.85,0.16-1.65,0.48-2.4c0.32-0.75,0.75-1.4,1.3-1.96c0.55-0.56,1.19-1,1.93-1.33c0.74-0.33,1.52-0.49,2.36-0.49
				c0.82,0,1.54,0.14,2.16,0.41c0.63,0.27,1.19,0.7,1.7,1.28l0.17-1.17c0.02-0.13,0.06-0.23,0.11-0.29c0.05-0.07,0.14-0.1,0.27-0.1
				h1.57c0.25,0,0.37,0.13,0.37,0.39V426.64z M143.63,419.64c-0.19-0.45-0.44-0.85-0.76-1.19c-0.32-0.34-0.7-0.61-1.13-0.81
				c-0.43-0.2-0.9-0.3-1.39-0.3c-0.47,0-0.93,0.09-1.35,0.28c-0.43,0.19-0.8,0.44-1.12,0.78c-0.32,0.33-0.57,0.73-0.76,1.18
				s-0.28,0.96-0.28,1.5c0,0.52,0.09,1.01,0.27,1.46c0.18,0.45,0.43,0.85,0.74,1.18c0.32,0.34,0.69,0.6,1.12,0.79
				c0.43,0.19,0.89,0.29,1.38,0.29c0.51,0,0.98-0.1,1.42-0.3c0.44-0.2,0.81-0.47,1.13-0.81c0.32-0.34,0.57-0.73,0.75-1.18
				c0.18-0.45,0.27-0.93,0.27-1.44C143.91,420.57,143.82,420.09,143.63,419.64z"/>
			<path class="st0" d="M169.48,430.33c-0.05,0.12-0.12,0.21-0.2,0.26s-0.17,0.08-0.28,0.08h-1.81c-0.19,0-0.32-0.06-0.38-0.17
				c-0.06-0.11-0.05-0.27,0.02-0.46l1.59-4.05l-4.18-10.32c-0.05-0.11-0.07-0.2-0.06-0.28c0.01-0.08,0.03-0.14,0.07-0.2
				c0.04-0.05,0.1-0.09,0.16-0.11c0.06-0.02,0.13-0.03,0.19-0.03h1.77c0.22,0,0.38,0.12,0.47,0.37l2.82,7.64l2.87-7.66
				c0.08-0.23,0.24-0.35,0.47-0.35h2c0.21,0,0.33,0.06,0.37,0.19c0.04,0.12,0.03,0.25-0.02,0.38L169.48,430.33z"/>
			<path class="st0" d="M199.15,426.69c-0.1,0.23-0.26,0.34-0.48,0.34h-1.03c-0.11,0-0.2-0.03-0.28-0.08
				c-0.08-0.06-0.15-0.14-0.2-0.26l-4.52-11.03c-0.08-0.2-0.09-0.36-0.01-0.47c0.08-0.11,0.2-0.16,0.36-0.16h1.92
				c0.23,0,0.38,0.12,0.47,0.37l2.77,7.7l2.77-7.73c0.05-0.13,0.11-0.22,0.19-0.27c0.08-0.05,0.17-0.07,0.28-0.07h2.14
				c0.14,0,0.24,0.05,0.28,0.14c0.04,0.09,0.03,0.23-0.05,0.42L199.15,426.69z"/>
			<path class="st0" d="M218.97,423.66c0.04,0,0.08,0.01,0.12,0.03c0.04,0.02,0.07,0.05,0.11,0.09l0.96,1.17
				c0.16,0.22,0.15,0.41-0.03,0.57c-0.71,0.62-1.41,1.06-2.11,1.33c-0.69,0.27-1.44,0.4-2.22,0.4c-0.82,0-1.6-0.16-2.34-0.48
				c-0.74-0.32-1.39-0.76-1.96-1.32c-0.56-0.56-1.01-1.21-1.35-1.95c-0.33-0.74-0.5-1.54-0.5-2.39c0-0.85,0.15-1.64,0.45-2.39
				c0.3-0.75,0.72-1.4,1.26-1.96c0.54-0.56,1.18-1,1.92-1.33c0.74-0.33,1.55-0.49,2.43-0.49c0.44,0,0.88,0.06,1.35,0.16
				c0.46,0.11,0.91,0.27,1.35,0.49s0.86,0.49,1.25,0.83c0.39,0.33,0.73,0.73,1.02,1.19c0.29,0.46,0.52,0.98,0.69,1.56
				c0.17,0.58,0.26,1.24,0.26,1.95c0,0.21-0.01,0.38-0.04,0.5c-0.03,0.12-0.08,0.22-0.15,0.29c-0.07,0.07-0.17,0.11-0.29,0.14
				c-0.13,0.02-0.28,0.03-0.48,0.03h-8.41c0.1,0.42,0.26,0.81,0.48,1.16c0.22,0.35,0.49,0.65,0.8,0.89
				c0.31,0.25,0.66,0.44,1.04,0.57s0.79,0.2,1.22,0.2c0.41,0,0.76-0.03,1.05-0.11c0.29-0.07,0.55-0.16,0.77-0.28
				c0.22-0.11,0.41-0.24,0.58-0.37c0.17-0.14,0.33-0.26,0.5-0.38C218.8,423.69,218.89,423.66,218.97,423.66z M214.63,417.42
				c-0.35,0.13-0.67,0.32-0.96,0.55c-0.29,0.23-0.55,0.51-0.76,0.82c-0.22,0.31-0.39,0.65-0.51,1.01h6.7
				c-0.14-0.38-0.32-0.72-0.53-1.04c-0.22-0.32-0.47-0.59-0.75-0.82c-0.28-0.23-0.6-0.41-0.94-0.53c-0.35-0.13-0.72-0.19-1.11-0.19
				C215.35,417.22,214.98,417.29,214.63,417.42z"/>
			<path class="st0" d="M231.71,426.63c0,0.13-0.06,0.23-0.17,0.3c-0.11,0.07-0.24,0.1-0.37,0.1h-1.73c-0.27,0-0.4-0.13-0.4-0.4
				v-11.19c0-0.27,0.13-0.4,0.4-0.4h1.27c0.13,0,0.25,0.05,0.35,0.14c0.11,0.09,0.17,0.21,0.21,0.34l0.16,1.35
				c0.23-0.34,0.5-0.63,0.79-0.87c0.29-0.24,0.6-0.44,0.92-0.6c0.32-0.16,0.65-0.27,1-0.34c0.34-0.07,0.69-0.11,1.03-0.11
				c0.51,0,1.03,0.1,1.56,0.29c0.53,0.19,1.02,0.49,1.45,0.9c0.43,0.41,0.79,0.94,1.07,1.58s0.41,1.41,0.41,2.3v6.62
				c0,0.26-0.12,0.39-0.37,0.39h-1.89c-0.27,0-0.4-0.13-0.4-0.39v-6.53c0-0.34-0.07-0.67-0.2-0.98c-0.13-0.32-0.31-0.6-0.54-0.84
				c-0.23-0.24-0.51-0.44-0.83-0.59c-0.32-0.15-0.67-0.22-1.05-0.22c-0.31,0-0.63,0.06-0.94,0.19c-0.32,0.12-0.6,0.3-0.86,0.54
				c-0.25,0.24-0.46,0.53-0.63,0.87c-0.16,0.34-0.24,0.73-0.24,1.16V426.63z"/>
			<path class="st0" d="M250.24,415.12h1.39c0.12,0,0.22,0.03,0.29,0.1c0.07,0.06,0.11,0.17,0.11,0.31v1.56
				c0,0.13-0.04,0.23-0.13,0.3c-0.08,0.07-0.19,0.11-0.31,0.11h-1.35v5.85c0,0.19,0.01,0.37,0.04,0.53s0.08,0.31,0.16,0.44
				s0.18,0.23,0.31,0.31c0.13,0.08,0.3,0.12,0.51,0.14l0.3,0.02c0.12,0.01,0.22,0.03,0.28,0.07c0.07,0.04,0.11,0.09,0.14,0.15
				s0.05,0.11,0.05,0.17c0,0.06,0.01,0.1,0.01,0.13v1.33c0,0.03-0.01,0.08-0.02,0.13s-0.04,0.11-0.09,0.16
				c-0.05,0.05-0.12,0.09-0.22,0.13c-0.1,0.04-0.23,0.06-0.4,0.06c-0.55,0-1.05-0.08-1.52-0.24c-0.46-0.16-0.86-0.39-1.19-0.68
				c-0.33-0.3-0.59-0.66-0.78-1.09c-0.19-0.43-0.28-0.92-0.28-1.46v-6.13h-1.08c-0.09,0-0.18-0.03-0.28-0.1
				c-0.09-0.07-0.14-0.17-0.14-0.31v-1.53c0-0.15,0.05-0.26,0.13-0.33c0.09-0.07,0.18-0.11,0.28-0.11h1.08v-1.96
				c0-0.13,0.03-0.23,0.08-0.29c0.05-0.07,0.15-0.12,0.3-0.16l1.92-0.56c0.05-0.01,0.09-0.02,0.11-0.02c0.1,0,0.17,0.04,0.22,0.12
				c0.05,0.08,0.07,0.18,0.07,0.3V415.12z"/>
			<path class="st0" d="M270.99,426.64c0,0.26-0.12,0.39-0.37,0.39h-1.67c-0.17,0-0.31-0.06-0.41-0.17
				c-0.11-0.11-0.16-0.25-0.16-0.42v-0.78c-0.51,0.5-1.08,0.88-1.72,1.16c-0.64,0.28-1.3,0.42-2.01,0.42c-0.8,0-1.56-0.15-2.29-0.46
				c-0.73-0.3-1.38-0.73-1.94-1.27c-0.56-0.55-1.01-1.19-1.34-1.95c-0.33-0.75-0.5-1.58-0.5-2.48c0-0.85,0.16-1.65,0.48-2.4
				c0.32-0.75,0.75-1.4,1.3-1.96c0.55-0.56,1.19-1,1.93-1.33c0.74-0.33,1.52-0.49,2.36-0.49c0.81,0,1.53,0.14,2.16,0.41
				c0.63,0.27,1.19,0.7,1.7,1.28l0.17-1.17c0.02-0.13,0.06-0.23,0.11-0.29c0.05-0.07,0.14-0.1,0.28-0.1h1.56
				c0.25,0,0.37,0.13,0.37,0.39V426.64z M268.05,419.64c-0.19-0.45-0.44-0.85-0.76-1.19c-0.32-0.34-0.7-0.61-1.13-0.81
				c-0.43-0.2-0.9-0.3-1.39-0.3c-0.48,0-0.93,0.09-1.35,0.28c-0.43,0.19-0.8,0.44-1.12,0.78c-0.32,0.33-0.57,0.73-0.76,1.18
				s-0.28,0.96-0.28,1.5c0,0.52,0.09,1.01,0.27,1.46c0.18,0.45,0.43,0.85,0.75,1.18c0.32,0.34,0.69,0.6,1.11,0.79
				c0.43,0.19,0.89,0.29,1.38,0.29c0.51,0,0.98-0.1,1.42-0.3c0.44-0.2,0.82-0.47,1.13-0.81c0.32-0.34,0.57-0.73,0.75-1.18
				c0.18-0.45,0.27-0.93,0.27-1.44C268.33,420.57,268.24,420.09,268.05,419.64z"/>
			<path class="st0" d="M301.71,426.73c0,0.2-0.09,0.3-0.27,0.3h-0.57c-0.1,0-0.17-0.03-0.2-0.08c-0.04-0.05-0.06-0.13-0.06-0.22
				v-2.27c-0.13,0.21-0.27,0.42-0.42,0.63c-0.15,0.21-0.31,0.39-0.47,0.54c-0.55,0.53-1.18,0.93-1.88,1.21
				c-0.7,0.28-1.44,0.42-2.22,0.42c-0.85,0-1.65-0.16-2.39-0.48c-0.75-0.32-1.4-0.76-1.96-1.32c-0.56-0.56-1-1.21-1.33-1.96
				s-0.49-1.55-0.49-2.4c0-0.85,0.16-1.64,0.49-2.39c0.33-0.75,0.77-1.4,1.33-1.96c0.56-0.56,1.21-1,1.96-1.33
				c0.75-0.33,1.54-0.49,2.39-0.49c0.52,0,1.03,0.07,1.52,0.2c0.49,0.13,0.95,0.32,1.38,0.57c0.43,0.25,0.83,0.54,1.18,0.88
				c0.36,0.35,0.66,0.73,0.92,1.16v-5.93c0-0.07,0.02-0.14,0.06-0.19c0.04-0.05,0.1-0.08,0.19-0.08l0.64-0.01
				c0.08,0,0.13,0.03,0.16,0.08c0.03,0.05,0.04,0.12,0.04,0.2V426.73z M291,423.06c0.26,0.62,0.62,1.16,1.07,1.63
				c0.45,0.47,0.98,0.84,1.58,1.11c0.6,0.28,1.25,0.41,1.94,0.41c0.7,0,1.36-0.14,1.98-0.4c0.62-0.27,1.16-0.63,1.62-1.09
				c0.46-0.46,0.83-1,1.1-1.61c0.27-0.62,0.41-1.28,0.41-1.98c0-0.69-0.13-1.35-0.39-1.97c-0.27-0.62-0.63-1.17-1.08-1.64
				c-0.46-0.47-0.99-0.84-1.6-1.12c-0.61-0.28-1.27-0.41-1.96-0.41c-0.69,0-1.34,0.14-1.96,0.41c-0.61,0.27-1.15,0.64-1.6,1.11
				c-0.46,0.47-0.82,1.01-1.08,1.63c-0.26,0.62-0.4,1.28-0.4,1.97C290.61,421.79,290.74,422.44,291,423.06z"/>
			<path class="st0" d="M310.19,421.5c0.05,0.66,0.22,1.29,0.51,1.86c0.29,0.57,0.66,1.08,1.12,1.5c0.46,0.43,0.99,0.76,1.58,1.01
				c0.59,0.25,1.22,0.37,1.88,0.37c0.49,0,0.91-0.04,1.27-0.13c0.36-0.09,0.68-0.2,0.95-0.34c0.28-0.14,0.52-0.29,0.72-0.45
				c0.21-0.16,0.4-0.32,0.59-0.47c0.07-0.06,0.15-0.09,0.25-0.09c0.08,0,0.13,0.03,0.17,0.08l0.28,0.37
				c0.05,0.07,0.07,0.15,0.06,0.23c-0.01,0.08-0.05,0.15-0.11,0.21c-0.28,0.25-0.57,0.47-0.88,0.67c-0.3,0.2-0.63,0.37-0.96,0.51
				c-0.33,0.14-0.69,0.25-1.08,0.33c-0.38,0.07-0.79,0.11-1.23,0.11c-0.83,0-1.63-0.16-2.39-0.49c-0.76-0.32-1.42-0.76-1.99-1.32
				c-0.57-0.56-1.02-1.21-1.36-1.96c-0.34-0.75-0.5-1.54-0.5-2.38c0-0.85,0.16-1.65,0.49-2.4c0.33-0.75,0.77-1.41,1.33-1.98
				c0.56-0.56,1.22-1.01,1.98-1.34c0.75-0.33,1.56-0.49,2.41-0.49c0.91,0,1.73,0.17,2.48,0.52c0.75,0.35,1.39,0.8,1.92,1.37
				c0.53,0.57,0.95,1.22,1.25,1.95c0.3,0.73,0.44,1.48,0.44,2.24c0,0.33-0.18,0.5-0.54,0.5H310.19z M313.45,416.31
				c-0.57,0.23-1.08,0.55-1.52,0.96c-0.44,0.4-0.82,0.88-1.11,1.42c-0.3,0.54-0.49,1.11-0.58,1.72h10.06
				c-0.09-0.54-0.27-1.08-0.54-1.6c-0.27-0.53-0.62-1-1.05-1.43c-0.43-0.42-0.93-0.77-1.51-1.03s-1.23-0.39-1.95-0.39
				C314.62,415.96,314.02,416.07,313.45,416.31z"/>
			<path class="st0" d="M344.38,426.8c-0.04,0.09-0.09,0.15-0.15,0.19c-0.06,0.03-0.12,0.05-0.17,0.05h-0.33
				c-0.05,0-0.11-0.02-0.17-0.05c-0.06-0.04-0.11-0.1-0.15-0.19l-4.78-11.29c-0.06-0.15-0.05-0.26,0.03-0.34
				c0.07-0.08,0.16-0.11,0.26-0.11h0.58c0.05,0,0.11,0.02,0.16,0.05s0.1,0.09,0.14,0.19l4.11,10.12l3.98-10.12
				c0.04-0.09,0.09-0.15,0.15-0.18c0.06-0.03,0.11-0.04,0.16-0.04h0.62c0.09,0,0.17,0.04,0.24,0.11c0.06,0.07,0.07,0.18,0.01,0.32
				L344.38,426.8z"/>
			<path class="st0" d="M355.68,421.5c0.05,0.66,0.22,1.29,0.51,1.86c0.29,0.57,0.66,1.08,1.12,1.5c0.46,0.43,0.99,0.76,1.58,1.01
				c0.59,0.25,1.22,0.37,1.88,0.37c0.49,0,0.91-0.04,1.27-0.13c0.36-0.09,0.68-0.2,0.95-0.34c0.28-0.14,0.52-0.29,0.72-0.45
				c0.21-0.16,0.4-0.32,0.59-0.47c0.07-0.06,0.15-0.09,0.25-0.09c0.08,0,0.13,0.03,0.17,0.08l0.28,0.37
				c0.05,0.07,0.07,0.15,0.06,0.23c-0.01,0.08-0.05,0.15-0.11,0.21c-0.28,0.25-0.57,0.47-0.88,0.67c-0.3,0.2-0.63,0.37-0.96,0.51
				c-0.33,0.14-0.69,0.25-1.08,0.33c-0.38,0.07-0.79,0.11-1.23,0.11c-0.83,0-1.63-0.16-2.39-0.49c-0.76-0.32-1.42-0.76-1.99-1.32
				c-0.57-0.56-1.02-1.21-1.36-1.96c-0.34-0.75-0.5-1.54-0.5-2.38c0-0.85,0.16-1.65,0.49-2.4c0.33-0.75,0.77-1.41,1.33-1.98
				s1.22-1.01,1.98-1.34c0.75-0.33,1.56-0.49,2.41-0.49c0.91,0,1.73,0.17,2.48,0.52c0.75,0.35,1.39,0.8,1.92,1.37
				c0.53,0.57,0.95,1.22,1.25,1.95c0.3,0.73,0.44,1.48,0.44,2.24c0,0.33-0.18,0.5-0.54,0.5H355.68z M358.94,416.31
				c-0.57,0.23-1.08,0.55-1.52,0.96c-0.44,0.4-0.82,0.88-1.11,1.42c-0.3,0.54-0.49,1.11-0.58,1.72h10.06
				c-0.09-0.54-0.27-1.08-0.54-1.6c-0.27-0.53-0.62-1-1.05-1.43c-0.43-0.42-0.93-0.77-1.51-1.03c-0.58-0.26-1.23-0.39-1.95-0.39
				C360.1,415.96,359.51,416.07,358.94,416.31z"/>
			<path class="st0" d="M382.88,419.91c0-0.49-0.08-0.97-0.25-1.43c-0.17-0.47-0.41-0.88-0.72-1.24s-0.69-0.65-1.13-0.88
				c-0.44-0.22-0.95-0.33-1.51-0.33c-0.49,0-0.97,0.09-1.45,0.26c-0.48,0.17-0.9,0.42-1.28,0.73c-0.38,0.32-0.69,0.7-0.92,1.14
				c-0.24,0.44-0.35,0.94-0.35,1.49v7.11c0,0.2-0.09,0.3-0.28,0.3h-0.5c-0.2,0-0.29-0.1-0.29-0.3v-14.93c0-0.19,0.09-0.28,0.28-0.28
				h0.5c0.19,0,0.29,0.09,0.29,0.28v5.19c0.43-0.64,1-1.16,1.7-1.53c0.7-0.37,1.49-0.56,2.37-0.56c0.69,0,1.32,0.13,1.89,0.4
				c0.57,0.26,1.05,0.62,1.46,1.08c0.41,0.45,0.72,0.99,0.94,1.6s0.33,1.26,0.33,1.95v6.7c0,0.13-0.03,0.23-0.1,0.3
				c-0.07,0.07-0.16,0.11-0.27,0.11h-0.35c-0.15,0-0.25-0.03-0.29-0.1c-0.04-0.06-0.07-0.17-0.07-0.3V419.91z"/>
			<path class="st0" d="M391.96,415.38c0-0.21,0.1-0.32,0.3-0.32h0.51c0.1,0,0.17,0.03,0.22,0.09c0.05,0.06,0.07,0.14,0.07,0.23
				v11.32c0,0.22-0.1,0.33-0.29,0.33h-0.51c-0.2,0-0.3-0.11-0.3-0.33V415.38z M393.2,413.09c-0.06,0.11-0.11,0.18-0.17,0.21
				c-0.05,0.03-0.1,0.04-0.16,0.04h-0.57c-0.08,0-0.13-0.03-0.16-0.09c-0.03-0.06-0.01-0.15,0.04-0.27l1.16-2.28
				c0.05-0.11,0.1-0.17,0.16-0.2c0.05-0.03,0.11-0.04,0.17-0.04h0.63c0.09,0,0.15,0.03,0.17,0.1c0.02,0.07,0,0.15-0.05,0.24
				L393.2,413.09z"/>
			<path class="st0" d="M410.63,424.77c0.08,0,0.14,0.03,0.17,0.09l0.29,0.43c0.07,0.08,0.09,0.16,0.07,0.24
				c-0.02,0.08-0.06,0.16-0.14,0.22c-0.25,0.2-0.52,0.4-0.82,0.58c-0.3,0.19-0.62,0.35-0.96,0.49c-0.34,0.14-0.7,0.26-1.08,0.34
				c-0.38,0.08-0.78,0.12-1.2,0.12c-0.85,0-1.65-0.16-2.4-0.49c-0.75-0.33-1.41-0.77-1.98-1.33c-0.57-0.56-1.02-1.21-1.34-1.96
				c-0.33-0.75-0.5-1.56-0.5-2.42c0-0.85,0.17-1.65,0.5-2.4c0.33-0.75,0.78-1.41,1.34-1.96c0.57-0.56,1.23-1,1.98-1.32
				c0.75-0.32,1.55-0.48,2.39-0.48c0.35,0,0.71,0.03,1.07,0.1c0.36,0.07,0.71,0.17,1.05,0.3c0.35,0.13,0.68,0.29,1,0.48
				c0.32,0.19,0.61,0.4,0.89,0.64c0.1,0.09,0.14,0.17,0.12,0.25c-0.02,0.08-0.04,0.13-0.05,0.15l-0.28,0.45
				c-0.01,0.02-0.04,0.04-0.08,0.06c-0.04,0.02-0.08,0.03-0.14,0.03c-0.07,0-0.14-0.03-0.19-0.08c-0.52-0.46-1.07-0.79-1.67-0.99
				c-0.6-0.2-1.17-0.3-1.73-0.3c-0.65,0.01-1.28,0.14-1.89,0.39c-0.61,0.25-1.15,0.61-1.61,1.06c-0.47,0.45-0.84,0.98-1.12,1.6
				c-0.28,0.62-0.42,1.29-0.42,2.02c0,0.7,0.13,1.37,0.4,1.99c0.27,0.62,0.63,1.16,1.08,1.62c0.46,0.46,0.99,0.82,1.61,1.09
				c0.62,0.26,1.27,0.4,1.96,0.4c0.38,0,0.74-0.04,1.07-0.11c0.33-0.07,0.63-0.17,0.91-0.29c0.28-0.12,0.54-0.26,0.78-0.42
				c0.24-0.16,0.46-0.32,0.66-0.5C410.46,424.8,410.54,424.77,410.63,424.77z"/>
			<path class="st0" d="M427.28,415.39c0-0.22,0.11-0.33,0.31-0.33h0.49c0.2,0,0.29,0.11,0.29,0.33v11.3c0,0.23-0.1,0.34-0.29,0.34
				h-0.46c-0.11,0-0.19-0.03-0.25-0.1c-0.06-0.07-0.09-0.15-0.09-0.26v-1.55c-0.22,0.35-0.48,0.65-0.78,0.91
				c-0.3,0.26-0.62,0.48-0.97,0.66c-0.35,0.17-0.71,0.31-1.08,0.4c-0.37,0.09-0.75,0.14-1.11,0.14c-0.7,0-1.35-0.13-1.95-0.38
				c-0.6-0.25-1.11-0.61-1.55-1.07c-0.44-0.46-0.78-1.01-1.02-1.64c-0.25-0.64-0.37-1.33-0.37-2.1v-6.64c0-0.22,0.1-0.33,0.29-0.33
				h0.5c0.21,0,0.31,0.11,0.31,0.33v6.59c0,0.61,0.1,1.17,0.3,1.68c0.2,0.51,0.47,0.94,0.82,1.3c0.35,0.36,0.76,0.64,1.24,0.83
				c0.48,0.2,1,0.29,1.55,0.29c0.43,0,0.87-0.08,1.32-0.24c0.45-0.16,0.86-0.4,1.23-0.71c0.37-0.31,0.67-0.71,0.91-1.17
				c0.24-0.47,0.36-1.02,0.36-1.64V415.39z"/>
			<path class="st0" d="M436.41,411.9c0-0.1,0.03-0.19,0.07-0.25c0.05-0.07,0.13-0.1,0.23-0.1h0.49c0.1,0,0.18,0.03,0.23,0.1
				c0.05,0.07,0.07,0.15,0.07,0.25v14.78c0,0.11-0.02,0.19-0.07,0.25c-0.05,0.07-0.13,0.1-0.23,0.1h-0.49
				c-0.11,0-0.18-0.03-0.23-0.09c-0.05-0.06-0.07-0.15-0.07-0.26V411.9z"/>
			<path class="st0" d="M445.6,418.67c0.33-0.75,0.77-1.4,1.33-1.95s1.22-0.99,1.97-1.31c0.75-0.32,1.55-0.48,2.4-0.48
				c0.85,0,1.66,0.16,2.4,0.48c0.75,0.32,1.41,0.76,1.96,1.31c0.56,0.55,1,1.2,1.32,1.95c0.32,0.75,0.48,1.54,0.48,2.4
				c0,0.85-0.16,1.65-0.48,2.4c-0.32,0.75-0.76,1.41-1.31,1.97c-0.55,0.56-1.2,1.01-1.95,1.34c-0.75,0.33-1.55,0.5-2.4,0.5
				c-0.85,0-1.65-0.17-2.4-0.5c-0.75-0.33-1.41-0.77-1.97-1.34s-1.01-1.22-1.34-1.97c-0.33-0.75-0.5-1.55-0.5-2.4
				C445.11,420.22,445.27,419.42,445.6,418.67z M446.66,423.04c0.26,0.62,0.63,1.17,1.08,1.64c0.46,0.47,1,0.84,1.61,1.11
				c0.61,0.28,1.27,0.41,1.96,0.41c0.72,0,1.39-0.14,2.01-0.42c0.61-0.28,1.14-0.65,1.59-1.12c0.45-0.47,0.8-1.02,1.05-1.63
				c0.25-0.62,0.38-1.27,0.38-1.96c0-0.7-0.13-1.35-0.39-1.97c-0.26-0.62-0.62-1.16-1.07-1.61c-0.45-0.46-0.99-0.83-1.6-1.1
				c-0.61-0.27-1.27-0.41-1.98-0.41c-0.69,0-1.34,0.13-1.95,0.4s-1.14,0.63-1.6,1.1s-0.82,1-1.08,1.62c-0.27,0.62-0.4,1.27-0.4,1.97
				C446.26,421.76,446.39,422.42,446.66,423.04z"/>
			<path class="st0" d="M464.19,424.28c0.02-0.08,0.09-0.14,0.21-0.19l0.37-0.09c0.03,0,0.06-0.01,0.08-0.01s0.04,0,0.06,0
				c0.08,0,0.15,0.03,0.18,0.08c0.04,0.05,0.07,0.13,0.1,0.25c0.08,0.3,0.22,0.57,0.41,0.8c0.19,0.24,0.41,0.44,0.66,0.6
				c0.26,0.16,0.55,0.29,0.86,0.38c0.32,0.09,0.65,0.13,1,0.13c0.28,0,0.6-0.04,0.95-0.13c0.35-0.08,0.69-0.22,1-0.41
				c0.31-0.19,0.58-0.43,0.79-0.72c0.21-0.29,0.32-0.65,0.32-1.08c0-0.39-0.09-0.71-0.28-0.99c-0.19-0.27-0.43-0.51-0.72-0.7
				c-0.3-0.19-0.63-0.35-1-0.48c-0.37-0.13-0.74-0.23-1.1-0.32c-0.47-0.11-0.92-0.26-1.35-0.44c-0.43-0.19-0.81-0.41-1.14-0.68
				c-0.33-0.27-0.6-0.58-0.8-0.92c-0.2-0.35-0.3-0.74-0.3-1.17c0-0.5,0.09-0.94,0.27-1.35c0.18-0.4,0.43-0.74,0.76-1.03
				c0.33-0.28,0.72-0.5,1.17-0.66c0.46-0.15,0.97-0.23,1.52-0.23c0.92,0,1.68,0.21,2.27,0.63c0.6,0.42,1.06,1,1.38,1.74
				c0.04,0.09,0.05,0.17,0.04,0.25c-0.01,0.07-0.05,0.12-0.11,0.16l-0.43,0.22c-0.04,0.02-0.08,0.03-0.13,0.03
				c-0.05,0-0.11-0.02-0.17-0.06c-0.06-0.04-0.12-0.12-0.18-0.23c-0.12-0.23-0.28-0.45-0.46-0.66c-0.18-0.2-0.39-0.38-0.62-0.53
				c-0.23-0.15-0.48-0.27-0.75-0.35s-0.56-0.13-0.87-0.13c-0.34,0-0.66,0.04-0.98,0.13c-0.31,0.09-0.59,0.22-0.83,0.4
				c-0.24,0.18-0.43,0.41-0.57,0.68c-0.14,0.27-0.21,0.59-0.21,0.95c0,0.31,0.09,0.59,0.28,0.84c0.19,0.24,0.42,0.46,0.7,0.64
				c0.28,0.18,0.58,0.33,0.9,0.44c0.32,0.12,0.61,0.21,0.87,0.26c0.42,0.1,0.87,0.23,1.33,0.41c0.46,0.17,0.89,0.4,1.27,0.68
				c0.38,0.28,0.7,0.62,0.95,1.02c0.25,0.4,0.37,0.88,0.37,1.42c0,0.53-0.11,1.01-0.34,1.44c-0.23,0.42-0.53,0.78-0.91,1.08
				c-0.38,0.29-0.82,0.52-1.33,0.67c-0.5,0.15-1.03,0.23-1.58,0.23c-0.46,0-0.9-0.06-1.33-0.18c-0.43-0.12-0.82-0.3-1.16-0.53
				c-0.35-0.23-0.65-0.51-0.9-0.85c-0.25-0.33-0.43-0.72-0.53-1.16C464.19,424.45,464.18,424.36,464.19,424.28z"/>
			<path class="st0" d="M491,415.36c0-0.2,0.1-0.3,0.3-0.3h0.53c0.2,0,0.3,0.1,0.3,0.3v2.4c0.24-0.45,0.54-0.85,0.9-1.2
				c0.36-0.35,0.75-0.64,1.18-0.88c0.43-0.24,0.89-0.42,1.38-0.55c0.49-0.13,0.99-0.19,1.5-0.19c0.85,0,1.64,0.17,2.39,0.49
				c0.75,0.33,1.4,0.77,1.96,1.33c0.56,0.56,1,1.21,1.33,1.96c0.33,0.75,0.49,1.55,0.49,2.39c0,0.85-0.16,1.65-0.49,2.4
				c-0.33,0.75-0.77,1.4-1.33,1.96c-0.56,0.56-1.21,1-1.96,1.33c-0.75,0.33-1.55,0.49-2.39,0.49c-0.52,0-1.02-0.07-1.51-0.2
				c-0.49-0.13-0.95-0.32-1.38-0.57c-0.43-0.25-0.83-0.55-1.18-0.89c-0.36-0.34-0.67-0.73-0.92-1.16v6.04
				c0,0.05-0.02,0.08-0.05,0.12c-0.03,0.03-0.08,0.05-0.13,0.05h-0.66c-0.17,0-0.25-0.08-0.25-0.25V415.36z M501.71,419.15
				c-0.26-0.62-0.62-1.16-1.07-1.63c-0.45-0.47-0.98-0.84-1.58-1.12c-0.6-0.27-1.25-0.41-1.94-0.41c-0.7,0-1.36,0.14-1.98,0.4
				c-0.62,0.27-1.16,0.63-1.63,1.09c-0.46,0.46-0.83,1-1.1,1.61c-0.27,0.62-0.41,1.28-0.41,1.98c0,0.69,0.13,1.35,0.4,1.97
				c0.26,0.62,0.62,1.17,1.08,1.64c0.46,0.47,0.99,0.84,1.6,1.12c0.61,0.28,1.27,0.41,1.97,0.41s1.35-0.14,1.96-0.41
				c0.61-0.28,1.14-0.64,1.6-1.11c0.46-0.47,0.82-1.01,1.08-1.63c0.27-0.62,0.4-1.28,0.4-1.97
				C502.1,420.42,501.97,419.77,501.71,419.15z"/>
			<path class="st0" d="M519.61,415.39c0-0.22,0.11-0.33,0.31-0.33h0.49c0.2,0,0.29,0.11,0.29,0.33v11.3c0,0.23-0.1,0.34-0.29,0.34
				h-0.46c-0.11,0-0.19-0.03-0.25-0.1s-0.09-0.15-0.09-0.26v-1.55c-0.22,0.35-0.48,0.65-0.78,0.91c-0.3,0.26-0.62,0.48-0.97,0.66
				c-0.35,0.17-0.71,0.31-1.08,0.4c-0.37,0.09-0.75,0.14-1.11,0.14c-0.7,0-1.35-0.13-1.95-0.38s-1.11-0.61-1.55-1.07
				c-0.44-0.46-0.78-1.01-1.02-1.64c-0.25-0.64-0.37-1.33-0.37-2.1v-6.64c0-0.22,0.1-0.33,0.29-0.33h0.5c0.21,0,0.31,0.11,0.31,0.33
				v6.59c0,0.61,0.1,1.17,0.3,1.68c0.2,0.51,0.47,0.94,0.82,1.3c0.35,0.36,0.76,0.64,1.24,0.83c0.48,0.2,1,0.29,1.55,0.29
				c0.43,0,0.87-0.08,1.32-0.24c0.45-0.16,0.86-0.4,1.23-0.71c0.37-0.31,0.67-0.71,0.91-1.17c0.24-0.47,0.36-1.02,0.36-1.64V415.39z
				 M516.6,413.35c-0.06,0.11-0.11,0.18-0.17,0.21c-0.05,0.03-0.11,0.04-0.16,0.04h-0.57c-0.08,0-0.13-0.03-0.16-0.09
				c-0.03-0.06-0.02-0.15,0.04-0.27l1.16-2.28c0.05-0.11,0.1-0.17,0.16-0.2c0.05-0.03,0.11-0.04,0.17-0.04h0.63
				c0.09,0,0.15,0.03,0.17,0.1c0.02,0.07,0,0.15-0.05,0.24L516.6,413.35z"/>
			<path class="st0" d="M528.75,411.8c0-0.17,0.08-0.25,0.25-0.25h0.64c0.14,0,0.2,0.08,0.2,0.25v5.97
				c0.25-0.43,0.56-0.82,0.92-1.16c0.36-0.34,0.75-0.64,1.18-0.88c0.43-0.24,0.89-0.43,1.38-0.57c0.49-0.13,0.99-0.2,1.51-0.2
				c0.85,0,1.64,0.17,2.39,0.49c0.75,0.33,1.4,0.77,1.96,1.33s1,1.21,1.33,1.96c0.33,0.75,0.49,1.55,0.49,2.39
				c0,0.85-0.16,1.65-0.49,2.4c-0.33,0.75-0.77,1.4-1.33,1.96c-0.56,0.56-1.21,1-1.96,1.32c-0.75,0.32-1.55,0.48-2.39,0.48
				c-0.78,0-1.52-0.14-2.22-0.42c-0.7-0.28-1.32-0.69-1.88-1.21c-0.16-0.15-0.32-0.33-0.47-0.54c-0.15-0.21-0.3-0.42-0.43-0.63v2.27
				c0,0.2-0.1,0.3-0.3,0.3h-0.49c-0.2,0-0.3-0.1-0.3-0.3V411.8z M539.45,419.13c-0.26-0.62-0.62-1.16-1.08-1.63
				c-0.46-0.47-0.99-0.84-1.6-1.11c-0.61-0.28-1.26-0.41-1.96-0.41s-1.35,0.14-1.97,0.41c-0.61,0.28-1.15,0.65-1.6,1.12
				c-0.46,0.47-0.82,1.02-1.08,1.64c-0.26,0.62-0.4,1.28-0.4,1.97c0,0.7,0.14,1.36,0.41,1.98c0.27,0.62,0.64,1.15,1.1,1.61
				c0.46,0.46,1,0.82,1.63,1.09c0.62,0.27,1.28,0.4,1.98,0.4c0.69,0,1.34-0.14,1.94-0.41c0.61-0.27,1.13-0.64,1.58-1.11
				c0.45-0.47,0.8-1.01,1.07-1.63c0.26-0.62,0.39-1.27,0.39-1.96C539.85,420.4,539.72,419.75,539.45,419.13z"/>
			<path class="st0" d="M548.72,411.9c0-0.1,0.02-0.19,0.07-0.25c0.05-0.07,0.13-0.1,0.23-0.1h0.49c0.11,0,0.18,0.03,0.23,0.1
				c0.05,0.07,0.07,0.15,0.07,0.25v14.78c0,0.11-0.03,0.19-0.07,0.25c-0.05,0.07-0.13,0.1-0.23,0.1h-0.49
				c-0.1,0-0.18-0.03-0.23-0.09c-0.05-0.06-0.07-0.15-0.07-0.26V411.9z"/>
			<path class="st0" d="M557.76,411.53c0-0.08,0.02-0.14,0.06-0.19c0.04-0.05,0.11-0.08,0.22-0.08h0.71c0.16,0,0.25,0.09,0.25,0.28
				v0.68c0,0.11-0.02,0.17-0.07,0.21c-0.05,0.04-0.11,0.05-0.18,0.05h-0.7c-0.19,0-0.28-0.09-0.28-0.26V411.53z M557.82,415.38
				c0-0.21,0.1-0.32,0.3-0.32h0.51c0.1,0,0.19,0.03,0.26,0.09s0.12,0.14,0.12,0.23v11.32c0,0.22-0.09,0.33-0.28,0.33h-0.61
				c-0.2,0-0.3-0.11-0.3-0.33V415.38z"/>
			<path class="st0" d="M576.48,424.77c0.08,0,0.14,0.03,0.18,0.09l0.29,0.43c0.06,0.08,0.09,0.16,0.07,0.24
				c-0.02,0.08-0.06,0.16-0.14,0.22c-0.25,0.2-0.52,0.4-0.82,0.58c-0.3,0.19-0.62,0.35-0.96,0.49c-0.34,0.14-0.7,0.26-1.08,0.34
				c-0.38,0.08-0.78,0.12-1.2,0.12c-0.85,0-1.65-0.16-2.4-0.49c-0.75-0.33-1.41-0.77-1.98-1.33c-0.57-0.56-1.02-1.21-1.35-1.96
				c-0.33-0.75-0.49-1.56-0.49-2.42c0-0.85,0.17-1.65,0.49-2.4c0.33-0.75,0.78-1.41,1.35-1.96c0.57-0.56,1.23-1,1.98-1.32
				c0.75-0.32,1.55-0.48,2.39-0.48c0.35,0,0.71,0.03,1.07,0.1c0.36,0.07,0.71,0.17,1.06,0.3s0.68,0.29,1,0.48
				c0.32,0.19,0.62,0.4,0.89,0.64c0.11,0.09,0.15,0.17,0.12,0.25c-0.02,0.08-0.04,0.13-0.05,0.15l-0.28,0.45
				c-0.01,0.02-0.04,0.04-0.08,0.06c-0.04,0.02-0.08,0.03-0.14,0.03c-0.07,0-0.14-0.03-0.2-0.08c-0.51-0.46-1.07-0.79-1.67-0.99
				c-0.6-0.2-1.17-0.3-1.73-0.3c-0.65,0.01-1.28,0.14-1.89,0.39s-1.15,0.61-1.61,1.06c-0.47,0.45-0.84,0.98-1.12,1.6
				c-0.28,0.62-0.42,1.29-0.42,2.02c0,0.7,0.14,1.37,0.4,1.99c0.27,0.62,0.63,1.16,1.09,1.62c0.46,0.46,0.99,0.82,1.61,1.09
				c0.61,0.26,1.27,0.4,1.96,0.4c0.39,0,0.74-0.04,1.07-0.11c0.33-0.07,0.64-0.17,0.91-0.29c0.28-0.12,0.54-0.26,0.78-0.42
				c0.24-0.16,0.46-0.32,0.66-0.5C576.32,424.8,576.4,424.77,576.48,424.77z"/>
			<path class="st0" d="M583.72,418.67c0.33-0.75,0.77-1.4,1.33-1.95c0.56-0.55,1.22-0.99,1.97-1.31c0.75-0.32,1.55-0.48,2.4-0.48
				c0.85,0,1.66,0.16,2.4,0.48c0.75,0.32,1.41,0.76,1.96,1.31c0.56,0.55,0.99,1.2,1.32,1.95c0.32,0.75,0.48,1.54,0.48,2.4
				c0,0.85-0.16,1.65-0.48,2.4c-0.32,0.75-0.76,1.41-1.31,1.97s-1.2,1.01-1.95,1.34c-0.75,0.33-1.55,0.5-2.4,0.5
				c-0.85,0-1.65-0.17-2.4-0.5c-0.75-0.33-1.41-0.77-1.97-1.34c-0.56-0.56-1.01-1.22-1.34-1.97c-0.33-0.75-0.5-1.55-0.5-2.4
				C583.23,420.22,583.4,419.42,583.72,418.67z M584.78,423.04c0.26,0.62,0.63,1.17,1.08,1.64c0.46,0.47,1,0.84,1.61,1.11
				c0.61,0.28,1.27,0.41,1.96,0.41c0.72,0,1.39-0.14,2.01-0.42s1.14-0.65,1.59-1.12c0.45-0.47,0.8-1.02,1.05-1.63
				c0.25-0.62,0.38-1.27,0.38-1.96c0-0.7-0.13-1.35-0.39-1.97c-0.26-0.62-0.62-1.16-1.07-1.61c-0.45-0.46-0.99-0.83-1.6-1.1
				c-0.61-0.27-1.27-0.41-1.98-0.41c-0.69,0-1.34,0.13-1.95,0.4c-0.61,0.27-1.14,0.63-1.6,1.1s-0.82,1-1.08,1.62
				c-0.27,0.62-0.4,1.27-0.4,1.97C584.39,421.76,584.52,422.42,584.78,423.04z"/>
			<path class="st0" d="M602.32,424.28c0.02-0.08,0.09-0.14,0.21-0.19l0.37-0.09c0.03,0,0.06-0.01,0.08-0.01s0.04,0,0.06,0
				c0.08,0,0.14,0.03,0.18,0.08c0.03,0.05,0.07,0.13,0.1,0.25c0.08,0.3,0.22,0.57,0.41,0.8c0.19,0.24,0.41,0.44,0.66,0.6
				c0.26,0.16,0.54,0.29,0.86,0.38c0.32,0.09,0.65,0.13,1,0.13c0.28,0,0.6-0.04,0.95-0.13c0.35-0.08,0.69-0.22,1-0.41
				c0.31-0.19,0.58-0.43,0.79-0.72c0.21-0.29,0.32-0.65,0.32-1.08c0-0.39-0.09-0.71-0.28-0.99c-0.19-0.27-0.43-0.51-0.72-0.7
				c-0.3-0.19-0.63-0.35-1-0.48c-0.37-0.13-0.73-0.23-1.1-0.32c-0.47-0.11-0.92-0.26-1.35-0.44c-0.43-0.19-0.81-0.41-1.14-0.68
				c-0.33-0.27-0.6-0.58-0.8-0.92c-0.2-0.35-0.3-0.74-0.3-1.17c0-0.5,0.09-0.94,0.27-1.35c0.18-0.4,0.43-0.74,0.76-1.03
				c0.33-0.28,0.72-0.5,1.17-0.66c0.46-0.15,0.97-0.23,1.53-0.23c0.92,0,1.68,0.21,2.27,0.63c0.6,0.42,1.06,1,1.38,1.74
				c0.04,0.09,0.05,0.17,0.04,0.25c-0.01,0.07-0.05,0.12-0.11,0.16l-0.43,0.22c-0.04,0.02-0.08,0.03-0.13,0.03
				c-0.05,0-0.11-0.02-0.17-0.06c-0.06-0.04-0.12-0.12-0.18-0.23c-0.12-0.23-0.28-0.45-0.46-0.66c-0.18-0.2-0.39-0.38-0.62-0.53
				s-0.48-0.27-0.75-0.35s-0.56-0.13-0.86-0.13c-0.34,0-0.66,0.04-0.98,0.13c-0.31,0.09-0.59,0.22-0.83,0.4
				c-0.24,0.18-0.43,0.41-0.57,0.68c-0.14,0.27-0.21,0.59-0.21,0.95c0,0.31,0.09,0.59,0.28,0.84c0.19,0.24,0.42,0.46,0.7,0.64
				c0.28,0.18,0.58,0.33,0.9,0.44c0.32,0.12,0.61,0.21,0.87,0.26c0.42,0.1,0.87,0.23,1.33,0.41c0.46,0.17,0.88,0.4,1.27,0.68
				c0.39,0.28,0.7,0.62,0.95,1.02s0.37,0.88,0.37,1.42c0,0.53-0.11,1.01-0.34,1.44c-0.23,0.42-0.53,0.78-0.91,1.08
				c-0.38,0.29-0.82,0.52-1.33,0.67c-0.5,0.15-1.03,0.23-1.58,0.23c-0.46,0-0.9-0.06-1.33-0.18c-0.43-0.12-0.81-0.3-1.16-0.53
				c-0.35-0.23-0.65-0.51-0.9-0.85c-0.25-0.33-0.43-0.72-0.53-1.16C602.31,424.45,602.31,424.36,602.32,424.28z"/>
		</g>
		<g>
			<g>
				<g>
					<path class="st1" d="M280.86,97.76c-3.43,0-6.59,1.79-8.29,4.76c-1.43,2.45-1.64,5.36-0.73,7.94c1.33,3.82,4.95,6.36,9.01,6.36
						c4.04,0,7.65-2.55,8.98-6.33c0.91-2.6,0.7-5.51-0.7-7.97C287.42,99.54,284.26,97.76,280.86,97.76z"/>
				</g>
				<g>
					<path class="st1" d="M365.84,97.76c-3.43,0-6.59,1.79-8.29,4.76c-1.27,2.21-1.58,4.82-0.94,7.21c1.09,4.18,4.86,7.09,9.23,7.09
						c4.31,0,8.04-2.85,9.19-7c0.67-2.39,0.4-5.06-0.91-7.3C372.42,99.54,369.24,97.76,365.84,97.76z"/>
				</g>
				<g>
					<rect x="329.1" y="48.31" class="st1" width="5.12" height="5.09"/>
				</g>
				<g>
					<g>
						<path class="st1" d="M229.28,219.52v16.93c0.02,0,0.05,0,0.07,0h17.23v-16.94H229.28z"/>
						<rect x="263.88" y="219.52" class="st1" width="17.3" height="16.94"/>
						<rect x="298.47" y="219.52" class="st1" width="17.3" height="16.94"/>
						<rect x="333.07" y="219.52" class="st1" width="17.3" height="16.94"/>
						<path class="st1" d="M229.28,219.52v-17.3h-17.3v16.87c0,0.15,0.02,0.29,0.02,0.43H229.28z"/>
						<rect x="246.58" y="202.22" class="st1" width="17.3" height="17.3"/>
						<rect x="281.17" y="202.22" class="st1" width="17.3" height="17.3"/>
						<rect x="315.77" y="202.22" class="st1" width="17.3" height="17.3"/>
						<rect x="367.66" y="219.52" class="st1" width="17.3" height="16.94"/>
						<path class="st1" d="M402.26,219.52v16.94h16.67c0.21,0,0.41-0.02,0.62-0.03v-16.9H402.26z"/>
						<rect x="350.36" y="202.22" class="st1" width="17.3" height="17.3"/>
						<rect x="384.96" y="202.22" class="st1" width="17.3" height="17.3"/>
						<path class="st1" d="M419.55,219.52h16.72c0-0.14,0.02-0.29,0.02-0.43v-16.87h-16.74V219.52z"/>
					</g>
				</g>
				<g>
					<g>
						<path class="st1" d="M418.93,21.6H229.35c-9.59,0-17.37,7.78-17.37,17.37v158.36H436.3V38.97
							C436.3,29.38,428.52,21.6,418.93,21.6z"/>
					</g>
				</g>
			</g>
		</g>
	</g>
	<g>
		<path d="M324.48,29.43c5.93,0,11.86,0.06,17.79-0.02c4.62-0.06,8.04,1.88,9.21,6.32c2.31,8.81,6.29,13.94,16.85,12.72
			c6.53-0.75,11.28,4.3,13.88,10.58c4.28,10.33,8.67,20.62,12.88,30.98c0.85,2.09,1.97,3.07,4.29,3.5
			c7.07,1.32,11.29,6.05,12.11,13.27c1.98,17.38,1.32,34.74-1.01,52.02c-0.29,2.16-2.57,4.71-4.62,5.8
			c-2.11,1.13-2.62,2.2-2.57,4.26c0.09,4.18,0.09,8.36,0,12.54c-0.11,5.22-2.83,7.95-8.02,8.09c-2.96,0.08-5.93,0.03-8.89,0.02
			c-6.93-0.04-9.37-2.53-9.41-9.6c-0.02-3.5-0.22-7.03,0.05-10.51c0.27-3.44-1.05-4.29-4.35-4.28c-27.63,0.12-55.25,0.06-82.88,0.06
			c-4.72,0-9.44,0.17-14.15-0.05c-3.1-0.15-4.02,1.03-3.88,3.98c0.19,4.03,0.12,8.09,0.02,12.13c-0.13,5.46-2.85,8.13-8.31,8.24
			c-3.37,0.07-6.74,0.09-10.11,0c-4.96-0.14-7.76-2.9-7.89-7.81c-0.11-4.31-0.11-8.63,0-12.94c0.06-2.13-0.68-3.05-2.66-4.18
			c-2.02-1.15-4.22-3.7-4.51-5.88c-2.27-16.88-2.88-33.83-1.1-50.82c0.88-8.4,4.67-12.56,12.72-14.59c1.38-0.35,2.99-1.74,3.56-3.06
			c4.42-10.12,8.69-20.32,12.84-30.55c3.23-7.97,9.05-11.68,17.56-11.62c8.31,0.06,8.31-0.02,11.42-7.59
			c0.62-1.5,1.28-2.97,1.83-4.49c1.62-4.49,4.73-6.62,9.54-6.53C312.62,29.51,318.55,29.43,324.48,29.43z M257.67,92.79
			c44.87,0,88.8,0,133.44,0c-4.73-10.75-9.01-21.05-13.79-31.11c-1.91-4.03-5.93-5.87-10.41-5.87c-28.3-0.05-56.59-0.05-84.89-0.01
			c-4.48,0.01-8.56,1.77-10.48,5.77C266.73,71.62,262.45,81.93,257.67,92.79z M265.15,103.99c-6.35-0.31-12.09,4.92-12.4,11.31
			c-0.33,6.67,4.87,12.33,11.53,12.55c6.47,0.21,11.94-4.95,12.17-11.48C276.69,109.84,271.63,104.31,265.15,103.99z M397.13,115.92
			c-0.02-6.49-5.36-11.92-11.77-11.94c-6.6-0.02-12.09,5.55-11.98,12.17c0.11,6.48,5.55,11.78,12,11.7
			C391.89,127.76,397.15,122.43,397.13,115.92z M317.06,43.72c3.23-1.62,3.23-1.62,8.48,0.43c-0.9-3.01-1.52-5.7-2.61-8.19
			c-0.23-0.53-3.1-0.67-3.23-0.35C318.62,38.23,317.9,41,317.06,43.72z M328.67,44.07c0.69-0.54,1.68-1.32,2.45-1.93
			c1.07,0.71,2.08,1.39,2.62,1.75c0-3.24,0-6.15,0-9.28c-0.81,0.65-1.73,1.4-2.51,2.02c-0.96-0.75-1.87-1.45-2.57-1.99
			C328.67,37.94,328.67,40.86,328.67,44.07z M312.08,43.95c0.27,0,0.55,0,0.82-0.01c0.68-2.9,1.36-5.8,2.1-8.96
			c-1.35,0-3.57,0-5.02,0C310.72,38.11,311.4,41.03,312.08,43.95z M339.37,34.82c-0.38,0-0.75,0-1.13,0c0,3.03,0,6.06,0,9.09
			c0.38,0,0.75,0,1.13,0C339.37,40.88,339.37,37.85,339.37,34.82z"/>
		<path class="st2" d="M317.06,43.72c0.83-2.72,1.56-5.49,2.64-8.1c0.13-0.31,3-0.18,3.23,0.35c1.09,2.48,1.71,5.18,2.61,8.19
			C320.3,42.09,320.3,42.09,317.06,43.72z"/>
		<path class="st2" d="M328.67,44.07c0-3.21,0-6.13,0-9.43c0.7,0.54,1.6,1.24,2.57,1.99c0.77-0.62,1.7-1.37,2.51-2.02
			c0,3.13,0,6.04,0,9.28c-0.54-0.36-1.55-1.03-2.62-1.75C330.35,42.75,329.36,43.53,328.67,44.07z"/>
		<path class="st2" d="M312.08,43.95c-0.68-2.92-1.37-5.84-2.1-8.97c1.45,0,3.67,0,5.02,0c-0.74,3.16-1.42,6.06-2.1,8.96
			C312.63,43.95,312.36,43.95,312.08,43.95z"/>
		<path class="st2" d="M339.37,34.82c0,3.03,0,6.06,0,9.09c-0.38,0-0.75,0-1.13,0c0-3.03,0-6.06,0-9.09
			C338.62,34.82,338.99,34.82,339.37,34.82z"/>
	</g>
	<rect x="306.35" y="32.49" width="39.91" height="15.82"/>
	<g>
		<g>
			<path class="st1" d="M311.74,36.18h-3.44v-1.24h8.38v1.24h-3.46v10.08h-1.48V36.18z"/>
			<path class="st1" d="M318.51,42.69l-1.18,3.56h-1.51l3.85-11.32h1.76l3.86,11.32h-1.56l-1.21-3.56H318.51z M322.23,41.55
				l-1.11-3.26c-0.25-0.74-0.42-1.41-0.59-2.07h-0.03c-0.17,0.67-0.35,1.36-0.57,2.05l-1.11,3.27H322.23z"/>
			<path class="st1" d="M332.93,46.25l-1.44-2.5c-0.59-0.96-0.96-1.58-1.31-2.23h-0.03c-0.32,0.65-0.64,1.26-1.23,2.25l-1.36,2.49
				h-1.68l3.46-5.73l-3.33-5.59h1.7l1.49,2.65c0.42,0.74,0.74,1.31,1.04,1.91h0.05c0.32-0.67,0.6-1.19,1.02-1.91l1.55-2.65h1.68
				l-3.44,5.51l3.53,5.81H332.93z"/>
			<path class="st1" d="M337.79,34.94v11.32h-1.46V34.94H337.79z"/>
		</g>
	</g>
	<g>
		<g>
			<path class="st1" d="M289.43,117.23v6.25c0.01,0,0.02,0,0.03,0h6.36v-6.25H289.43z"/>
			<rect x="302.2" y="117.23" class="st1" width="6.38" height="6.25"/>
			<rect x="314.97" y="117.23" class="st1" width="6.38" height="6.25"/>
			<rect x="327.74" y="117.23" class="st1" width="6.38" height="6.25"/>
			<path class="st1" d="M289.43,117.23v-6.38h-6.38v6.22c0,0.05,0.01,0.11,0.01,0.16H289.43z"/>
			<rect x="295.82" y="110.84" class="st1" width="6.38" height="6.38"/>
			<rect x="308.58" y="110.84" class="st1" width="6.38" height="6.38"/>
			<rect x="321.35" y="110.84" class="st1" width="6.38" height="6.38"/>
			<rect x="340.5" y="117.23" class="st1" width="6.38" height="6.25"/>
			<path class="st1" d="M353.27,117.23v6.25h6.15c0.08,0,0.15-0.01,0.23-0.01v-6.24H353.27z"/>
			<rect x="334.12" y="110.84" class="st1" width="6.38" height="6.38"/>
			<rect x="346.89" y="110.84" class="st1" width="6.38" height="6.38"/>
			<path class="st1" d="M359.66,117.23h6.17c0-0.05,0.01-0.11,0.01-0.16v-6.22h-6.18V117.23z"/>
		</g>
	</g>
</g>
</svg>
